<svg xmlns="http://www.w3.org/2000/svg" xmlns:xlink="http://www.w3.org/1999/xlink" width="275" zoomAndPan="magnify" viewBox="0 0 206.25 187.499992" height="250" preserveAspectRatio="xMidYMid meet" version="1.2"><defs><clipPath id="b6723b63e6"><path d="M 0 0.0898438 L 205.503906 0.0898438 L 205.503906 186.910156 L 0 186.910156 Z M 0 0.0898438 "/></clipPath><clipPath id="9e40443c4d"><path d="M 15.117188 0.0898438 L 190.726562 0.0898438 L 190.726562 186.910156 L 15.117188 186.910156 Z M 15.117188 0.0898438 "/></clipPath><clipPath id="30ea3de292"><path d="M 15.117188 0.0898438 L 190.726562 0.0898438 L 190.726562 24 L 15.117188 24 Z M 15.117188 0.0898438 "/></clipPath><clipPath id="0c4cf8f00e"><path d="M 15.117188 0.0898438 L 190.726562 0.0898438 L 190.726562 25 L 15.117188 25 Z M 15.117188 0.0898438 "/></clipPath></defs><g id="016884b3c0"><g clip-rule="nonzero" clip-path="url(#b6723b63e6)"><path style=" stroke:none;fill-rule:nonzero;fill:#ffffff;fill-opacity:1;" d="M 0 0.0898438 L 205.503906 0.0898438 L 205.503906 186.910156 L 0 186.910156 Z M 0 0.0898438 "/><path style=" stroke:none;fill-rule:nonzero;fill:#01c9ad;fill-opacity:1;" d="M 0 0.0898438 L 205.503906 0.0898438 L 205.503906 186.910156 L 0 186.910156 Z M 0 0.0898438 "/></g><g clip-rule="nonzero" clip-path="url(#9e40443c4d)"><path style=" stroke:none;fill-rule:nonzero;fill:#fffbeb;fill-opacity:1;" d="M 18.632812 0.613281 L 187.214844 0.613281 C 187.601562 0.613281 187.976562 0.6875 188.335938 0.835938 C 188.695312 0.984375 189.011719 1.195312 189.285156 1.46875 C 189.5625 1.742188 189.773438 2.058594 189.921875 2.417969 C 190.070312 2.777344 190.144531 3.152344 190.144531 3.539062 L 190.144531 183.46875 C 190.144531 183.855469 190.070312 184.230469 189.921875 184.589844 C 189.773438 184.945312 189.5625 185.261719 189.285156 185.539062 C 189.011719 185.8125 188.695312 186.023438 188.335938 186.171875 C 187.976562 186.320312 187.601562 186.394531 187.214844 186.394531 L 18.632812 186.394531 C 18.246094 186.394531 17.871094 186.320312 17.511719 186.171875 C 17.152344 186.023438 16.835938 185.8125 16.5625 185.539062 C 16.285156 185.261719 16.074219 184.945312 15.925781 184.589844 C 15.777344 184.230469 15.703125 183.855469 15.703125 183.46875 L 15.703125 3.539062 C 15.703125 3.152344 15.777344 2.777344 15.925781 2.417969 C 16.074219 2.058594 16.285156 1.742188 16.5625 1.46875 C 16.835938 1.195312 17.152344 0.984375 17.511719 0.835938 C 17.871094 0.6875 18.246094 0.613281 18.632812 0.613281 Z M 18.632812 0.613281 "/><path style=" stroke:none;fill-rule:nonzero;fill:#000000;fill-opacity:1;" d="M 187.21875 186.917969 L 18.632812 186.917969 C 16.730469 186.917969 15.179688 185.371094 15.179688 183.46875 L 15.179688 3.539062 C 15.179688 1.636719 16.726562 0.0898438 18.632812 0.0898438 L 187.21875 0.0898438 C 189.121094 0.0898438 190.675781 1.636719 190.675781 3.539062 L 190.675781 183.46875 C 190.675781 185.367188 189.125 186.917969 187.21875 186.917969 Z M 18.632812 1.132812 C 17.304688 1.132812 16.222656 2.214844 16.222656 3.539062 L 16.222656 183.46875 C 16.222656 184.792969 17.304688 185.871094 18.632812 185.871094 L 187.21875 185.871094 C 188.546875 185.871094 189.628906 184.792969 189.628906 183.46875 L 189.628906 3.539062 C 189.628906 2.214844 188.546875 1.132812 187.21875 1.132812 Z M 18.632812 1.132812 "/></g><g clip-rule="nonzero" clip-path="url(#30ea3de292)"><path style=" stroke:none;fill-rule:nonzero;fill:#fdbe11;fill-opacity:1;" d="M 190.144531 23.746094 L 15.703125 23.746094 L 15.703125 3.539062 C 15.703125 1.921875 17.015625 0.613281 18.632812 0.613281 L 187.21875 0.613281 C 188.839844 0.613281 190.152344 1.921875 190.152344 3.539062 L 190.152344 23.746094 Z M 190.144531 23.746094 "/></g><g clip-rule="nonzero" clip-path="url(#0c4cf8f00e)"><path style=" stroke:none;fill-rule:nonzero;fill:#000000;fill-opacity:1;" d="M 190.144531 24.265625 L 15.703125 24.265625 C 15.414062 24.265625 15.179688 24.03125 15.179688 23.746094 L 15.179688 3.539062 C 15.179688 1.636719 16.726562 0.0898438 18.632812 0.0898438 L 187.21875 0.0898438 C 189.121094 0.0898438 190.675781 1.636719 190.675781 3.539062 L 190.675781 23.746094 C 190.675781 24.03125 190.4375 24.265625 190.152344 24.265625 Z M 16.222656 23.222656 L 189.625 23.222656 L 189.625 3.539062 C 189.625 2.214844 188.542969 1.132812 187.214844 1.132812 L 18.632812 1.132812 C 17.304688 1.132812 16.222656 2.214844 16.222656 3.539062 Z M 16.222656 23.222656 "/></g><path style=" stroke:none;fill-rule:nonzero;fill:#fdbe11;fill-opacity:1;" d="M 140.753906 55.992188 L 140.753906 93.523438 C 140.753906 96.488281 138.34375 98.90625 135.355469 98.90625 L 70.492188 98.90625 C 67.515625 98.90625 65.09375 96.496094 65.09375 93.523438 L 65.09375 55.992188 C 65.09375 54.46875 65.734375 53.089844 66.757812 52.105469 C 67.726562 51.179688 69.035156 50.605469 70.492188 50.605469 L 135.355469 50.605469 C 136.816406 50.605469 138.128906 51.175781 139.089844 52.105469 C 140.113281 53.089844 140.753906 54.46875 140.753906 55.992188 Z M 140.753906 55.992188 "/><path style=" stroke:none;fill-rule:nonzero;fill:#000000;fill-opacity:1;" d="M 135.355469 99.425781 L 70.492188 99.425781 C 67.226562 99.425781 64.578125 96.777344 64.578125 93.523438 L 64.578125 55.992188 C 64.578125 54.375 65.226562 52.859375 66.398438 51.726562 C 67.5 50.667969 68.953125 50.085938 70.492188 50.085938 L 135.355469 50.085938 C 136.898438 50.085938 138.351562 50.667969 139.449219 51.726562 C 140.621094 52.855469 141.269531 54.367188 141.269531 55.992188 L 141.269531 93.523438 C 141.269531 96.777344 138.613281 99.425781 135.351562 99.425781 Z M 70.492188 51.132812 C 69.226562 51.132812 68.027344 51.613281 67.117188 52.484375 C 66.152344 53.414062 65.617188 54.660156 65.617188 55.996094 L 65.617188 93.527344 C 65.617188 96.207031 67.804688 98.390625 70.484375 98.390625 L 135.351562 98.390625 C 138.039062 98.390625 140.222656 96.207031 140.222656 93.527344 L 140.222656 55.996094 C 140.222656 54.660156 139.691406 53.417969 138.722656 52.484375 C 137.820312 51.613281 136.621094 51.132812 135.351562 51.132812 L 70.484375 51.132812 Z M 70.492188 51.132812 "/><path style=" stroke:none;fill-rule:nonzero;fill:#fdbe11;fill-opacity:1;" d="M 66.757812 97.410156 L 84.007812 81.867188 L 99.28125 68.109375 C 101.347656 66.246094 104.496094 66.246094 106.558594 68.109375 L 121.828125 81.867188 L 139.085938 97.410156 C 138.117188 98.332031 136.804688 98.90625 135.351562 98.90625 L 70.484375 98.90625 C 69.027344 98.90625 67.714844 98.335938 66.753906 97.410156 Z M 66.757812 97.410156 "/><path style=" stroke:none;fill-rule:nonzero;fill:#000000;fill-opacity:1;" d="M 135.355469 99.425781 L 70.492188 99.425781 C 68.949219 99.425781 67.496094 98.84375 66.398438 97.785156 C 66.292969 97.683594 66.234375 97.542969 66.242188 97.398438 C 66.242188 97.25 66.304688 97.117188 66.414062 97.015625 L 98.9375 67.714844 C 101.210938 65.664062 104.640625 65.664062 106.914062 67.714844 L 139.441406 97.011719 C 139.550781 97.109375 139.613281 97.246094 139.613281 97.394531 C 139.613281 97.539062 139.554688 97.675781 139.449219 97.777344 C 138.347656 98.835938 136.894531 99.421875 135.355469 99.421875 Z M 67.550781 97.398438 C 68.390625 98.035156 69.414062 98.382812 70.496094 98.382812 L 135.363281 98.382812 C 136.433594 98.382812 137.464844 98.039062 138.300781 97.398438 L 106.214844 68.496094 C 104.335938 66.804688 101.511719 66.804688 99.636719 68.496094 L 67.550781 97.402344 Z M 67.550781 97.398438 "/><path style=" stroke:none;fill-rule:nonzero;fill:#fdbe11;fill-opacity:1;" d="M 139.089844 52.105469 L 121.839844 67.644531 L 106.566406 81.402344 C 104.5 83.265625 101.351562 83.265625 99.289062 81.402344 L 84.019531 67.644531 L 66.761719 52.105469 C 67.730469 51.179688 69.042969 50.605469 70.496094 50.605469 L 135.363281 50.605469 C 136.820312 50.605469 138.132812 51.175781 139.09375 52.105469 Z M 139.089844 52.105469 "/><path style=" stroke:none;fill-rule:nonzero;fill:#000000;fill-opacity:1;" d="M 102.925781 83.332031 C 101.5 83.332031 100.070312 82.820312 98.9375 81.792969 L 66.414062 52.496094 C 66.304688 52.394531 66.242188 52.261719 66.242188 52.113281 C 66.242188 51.96875 66.296875 51.832031 66.402344 51.726562 C 67.503906 50.667969 68.957031 50.085938 70.496094 50.085938 L 135.363281 50.085938 C 136.90625 50.085938 138.359375 50.667969 139.457031 51.726562 C 139.558594 51.828125 139.617188 51.96875 139.613281 52.113281 C 139.613281 52.261719 139.550781 52.394531 139.441406 52.496094 L 106.914062 81.800781 C 105.78125 82.820312 104.351562 83.332031 102.925781 83.332031 Z M 67.550781 52.113281 L 99.636719 81.015625 C 101.511719 82.707031 104.34375 82.707031 106.214844 81.015625 L 138.300781 52.109375 C 137.464844 51.472656 136.4375 51.128906 135.355469 51.128906 L 70.492188 51.128906 C 69.417969 51.128906 68.390625 51.472656 67.550781 52.113281 Z M 67.550781 52.113281 "/><path style=" stroke:none;fill-rule:nonzero;fill:#01c9ad;fill-opacity:1;" d="M 35.460938 150.015625 L 90.300781 150.015625 C 90.5 150.015625 90.691406 150.054688 90.871094 150.128906 C 91.054688 150.207031 91.214844 150.3125 91.355469 150.453125 C 91.496094 150.589844 91.601562 150.753906 91.679688 150.933594 C 91.753906 151.117188 91.792969 151.304688 91.792969 151.503906 L 91.792969 165.128906 C 91.792969 165.328125 91.753906 165.515625 91.679688 165.699219 C 91.601562 165.882812 91.496094 166.042969 91.355469 166.179688 C 91.214844 166.320312 91.054688 166.429688 90.871094 166.503906 C 90.691406 166.578125 90.5 166.617188 90.300781 166.617188 L 35.460938 166.617188 C 35.265625 166.617188 35.074219 166.578125 34.890625 166.503906 C 34.707031 166.429688 34.546875 166.320312 34.40625 166.179688 C 34.269531 166.042969 34.160156 165.882812 34.085938 165.699219 C 34.007812 165.515625 33.972656 165.328125 33.972656 165.128906 L 33.972656 151.503906 C 33.972656 151.304688 34.007812 151.117188 34.085938 150.933594 C 34.160156 150.753906 34.269531 150.589844 34.40625 150.453125 C 34.546875 150.3125 34.707031 150.207031 34.890625 150.128906 C 35.074219 150.054688 35.265625 150.015625 35.460938 150.015625 Z M 35.460938 150.015625 "/><path style=" stroke:none;fill-rule:nonzero;fill:#000000;fill-opacity:1;" d="M 90.296875 167.140625 L 35.460938 167.140625 C 34.351562 167.140625 33.449219 166.234375 33.449219 165.128906 L 33.449219 151.503906 C 33.449219 150.398438 34.351562 149.496094 35.460938 149.496094 L 90.296875 149.496094 C 91.40625 149.496094 92.308594 150.398438 92.308594 151.503906 L 92.308594 165.128906 C 92.308594 166.234375 91.40625 167.140625 90.296875 167.140625 Z M 35.460938 150.539062 C 34.929688 150.539062 34.496094 150.972656 34.496094 151.503906 L 34.496094 165.128906 C 34.496094 165.664062 34.929688 166.09375 35.460938 166.09375 L 90.296875 166.09375 C 90.832031 166.09375 91.265625 165.664062 91.265625 165.128906 L 91.265625 151.503906 C 91.265625 150.972656 90.832031 150.539062 90.296875 150.539062 Z M 35.460938 150.539062 "/><path style=" stroke:none;fill-rule:nonzero;fill:#000000;fill-opacity:1;" d="M 62.511719 158.5625 C 62.511719 159.152344 62.445312 159.664062 62.304688 160.097656 C 62.164062 160.527344 61.976562 160.882812 61.738281 161.160156 C 61.503906 161.441406 61.222656 161.652344 60.910156 161.785156 C 60.589844 161.921875 60.253906 161.988281 59.898438 161.988281 C 59.476562 161.988281 59.105469 161.910156 58.792969 161.761719 C 58.476562 161.609375 58.214844 161.382812 58.007812 161.097656 C 57.796875 160.8125 57.644531 160.457031 57.546875 160.039062 C 57.449219 159.621094 57.394531 159.15625 57.394531 158.636719 C 57.394531 158.050781 57.464844 157.542969 57.605469 157.113281 C 57.746094 156.679688 57.929688 156.324219 58.167969 156.046875 C 58.410156 155.769531 58.679688 155.558594 59 155.421875 C 59.320312 155.285156 59.652344 155.21875 60.003906 155.21875 C 60.425781 155.21875 60.796875 155.296875 61.113281 155.449219 C 61.425781 155.605469 61.6875 155.824219 61.894531 156.109375 C 62.105469 156.398438 62.261719 156.746094 62.363281 157.164062 C 62.460938 157.582031 62.511719 158.046875 62.511719 158.5625 Z M 61.578125 158.628906 C 61.578125 158.242188 61.546875 157.890625 61.488281 157.566406 C 61.429688 157.242188 61.335938 156.964844 61.199219 156.734375 C 61.070312 156.507812 60.898438 156.324219 60.695312 156.199219 C 60.488281 156.074219 60.234375 156.003906 59.941406 156.003906 C 59.648438 156.003906 59.414062 156.074219 59.210938 156.210938 C 59.003906 156.34375 58.839844 156.53125 58.707031 156.761719 C 58.578125 156.996094 58.476562 157.269531 58.414062 157.585938 C 58.351562 157.898438 58.320312 158.234375 58.320312 158.589844 C 58.320312 158.980469 58.351562 159.335938 58.410156 159.652344 C 58.46875 159.96875 58.566406 160.246094 58.695312 160.476562 C 58.828125 160.707031 58.996094 160.890625 59.199219 161.015625 C 59.402344 161.144531 59.652344 161.207031 59.941406 161.207031 C 60.230469 161.207031 60.46875 161.140625 60.671875 161.003906 C 60.878906 160.867188 61.050781 160.679688 61.179688 160.449219 C 61.3125 160.214844 61.410156 159.945312 61.476562 159.632812 C 61.539062 159.320312 61.574219 158.984375 61.574219 158.628906 Z M 61.578125 158.628906 "/><path style=" stroke:none;fill-rule:nonzero;fill:#000000;fill-opacity:1;" d="M 68.082031 161.902344 L 66.945312 161.902344 L 64.472656 158.667969 L 64.472656 161.902344 L 63.574219 161.902344 L 63.574219 155.3125 L 64.472656 155.3125 L 64.472656 158.375 L 66.894531 155.3125 L 67.960938 155.3125 L 65.351562 158.441406 L 68.074219 161.902344 Z M 68.082031 161.902344 "/><path style=" stroke:none;fill-rule:nonzero;fill:#01c9ad;fill-opacity:1;" d="M 115.550781 150.015625 L 170.390625 150.015625 C 170.589844 150.015625 170.777344 150.054688 170.960938 150.128906 C 171.144531 150.207031 171.304688 150.3125 171.445312 150.453125 C 171.585938 150.589844 171.691406 150.753906 171.769531 150.933594 C 171.84375 151.117188 171.882812 151.304688 171.882812 151.503906 L 171.882812 165.128906 C 171.882812 165.328125 171.84375 165.515625 171.769531 165.699219 C 171.691406 165.882812 171.585938 166.042969 171.445312 166.179688 C 171.304688 166.320312 171.144531 166.429688 170.960938 166.503906 C 170.777344 166.578125 170.589844 166.617188 170.390625 166.617188 L 115.550781 166.617188 C 115.351562 166.617188 115.164062 166.578125 114.980469 166.503906 C 114.796875 166.429688 114.636719 166.320312 114.496094 166.179688 C 114.359375 166.042969 114.25 165.882812 114.175781 165.699219 C 114.097656 165.515625 114.0625 165.328125 114.0625 165.128906 L 114.0625 151.503906 C 114.0625 151.304688 114.097656 151.117188 114.175781 150.933594 C 114.25 150.753906 114.359375 150.589844 114.496094 150.453125 C 114.636719 150.3125 114.796875 150.207031 114.980469 150.128906 C 115.164062 150.054688 115.351562 150.015625 115.550781 150.015625 Z M 115.550781 150.015625 "/><path style=" stroke:none;fill-rule:nonzero;fill:#000000;fill-opacity:1;" d="M 170.386719 167.140625 L 115.550781 167.140625 C 114.441406 167.140625 113.539062 166.234375 113.539062 165.128906 L 113.539062 151.503906 C 113.539062 150.398438 114.441406 149.496094 115.550781 149.496094 L 170.386719 149.496094 C 171.496094 149.496094 172.398438 150.398438 172.398438 151.503906 L 172.398438 165.128906 C 172.398438 166.234375 171.496094 167.140625 170.386719 167.140625 Z M 115.550781 150.539062 C 115.015625 150.539062 114.582031 150.972656 114.582031 151.503906 L 114.582031 165.128906 C 114.582031 165.664062 115.015625 166.09375 115.550781 166.09375 L 170.386719 166.09375 C 170.917969 166.09375 171.351562 165.664062 171.351562 165.128906 L 171.351562 151.503906 C 171.351562 150.972656 170.917969 150.539062 170.386719 150.539062 Z M 115.550781 150.539062 "/><path style=" stroke:none;fill-rule:nonzero;fill:#000000;fill-opacity:1;" d="M 136.480469 161.902344 L 135.46875 161.902344 L 134.484375 159.792969 C 134.410156 159.632812 134.332031 159.496094 134.253906 159.390625 C 134.175781 159.289062 134.09375 159.203125 134.003906 159.140625 C 133.914062 159.078125 133.816406 159.035156 133.710938 159.003906 C 133.605469 158.972656 133.484375 158.964844 133.355469 158.964844 L 132.933594 158.964844 L 132.933594 161.902344 L 132.03125 161.902344 L 132.03125 155.3125 L 133.800781 155.3125 C 134.179688 155.3125 134.515625 155.355469 134.789062 155.4375 C 135.066406 155.519531 135.289062 155.640625 135.46875 155.792969 C 135.644531 155.941406 135.777344 156.125 135.855469 156.339844 C 135.9375 156.554688 135.980469 156.789062 135.980469 157.050781 C 135.980469 157.253906 135.949219 157.449219 135.890625 157.632812 C 135.828125 157.816406 135.738281 157.984375 135.617188 158.132812 C 135.5 158.285156 135.351562 158.410156 135.175781 158.519531 C 134.996094 158.628906 134.792969 158.714844 134.5625 158.765625 C 134.746094 158.828125 134.90625 158.941406 135.035156 159.097656 C 135.164062 159.261719 135.292969 159.46875 135.429688 159.734375 L 136.476562 161.90625 Z M 135.042969 157.121094 C 135.042969 156.765625 134.933594 156.507812 134.714844 156.328125 C 134.496094 156.152344 134.179688 156.066406 133.785156 156.066406 L 132.9375 156.066406 L 132.9375 158.25 L 133.664062 158.25 C 133.878906 158.25 134.066406 158.222656 134.238281 158.175781 C 134.410156 158.128906 134.550781 158.054688 134.671875 157.957031 C 134.792969 157.859375 134.886719 157.742188 134.949219 157.601562 C 135.011719 157.460938 135.050781 157.300781 135.050781 157.121094 Z M 135.042969 157.121094 "/><path style=" stroke:none;fill-rule:nonzero;fill:#000000;fill-opacity:1;" d="M 141.628906 161.902344 L 137.878906 161.902344 L 137.878906 155.3125 L 141.628906 155.3125 L 141.628906 156.066406 L 138.777344 156.066406 L 138.777344 158.113281 L 141.519531 158.113281 L 141.519531 158.871094 L 138.777344 158.871094 L 138.777344 161.140625 L 141.628906 161.140625 L 141.628906 161.90625 Z M 141.628906 161.902344 "/><path style=" stroke:none;fill-rule:nonzero;fill:#000000;fill-opacity:1;" d="M 148.191406 161.902344 L 147.207031 161.902344 L 146.746094 160.464844 L 144 160.464844 L 143.53125 161.902344 L 142.597656 161.902344 L 144.792969 155.3125 L 146.027344 155.3125 Z M 146.492188 159.664062 L 145.375 156.136719 L 144.253906 159.664062 Z M 146.492188 159.664062 "/><path style=" stroke:none;fill-rule:nonzero;fill:#000000;fill-opacity:1;" d="M 153.566406 158.53125 C 153.566406 158.847656 153.539062 159.152344 153.492188 159.4375 C 153.445312 159.726562 153.367188 159.996094 153.257812 160.246094 C 153.144531 160.496094 153.011719 160.722656 152.835938 160.925781 C 152.664062 161.128906 152.457031 161.300781 152.207031 161.445312 C 151.953125 161.59375 151.667969 161.703125 151.335938 161.78125 C 151.007812 161.859375 150.632812 161.902344 150.207031 161.902344 L 148.792969 161.902344 L 148.792969 155.3125 L 150.496094 155.3125 C 151.527344 155.3125 152.292969 155.578125 152.800781 156.105469 C 153.308594 156.632812 153.5625 157.445312 153.5625 158.53125 Z M 152.617188 158.597656 C 152.617188 158.128906 152.578125 157.738281 152.488281 157.414062 C 152.398438 157.089844 152.269531 156.828125 152.089844 156.632812 C 151.914062 156.433594 151.6875 156.289062 151.414062 156.199219 C 151.144531 156.109375 150.832031 156.0625 150.464844 156.0625 L 149.691406 156.0625 L 149.691406 161.125 L 150.367188 161.125 C 151.867188 161.125 152.617188 160.277344 152.617188 158.597656 Z M 152.617188 158.597656 "/><path style=" stroke:none;fill-rule:nonzero;fill:#f75b2b;fill-opacity:1;" d="M 114.335938 53.148438 C 114.335938 53.894531 114.265625 54.636719 114.117188 55.371094 C 113.972656 56.101562 113.757812 56.816406 113.46875 57.503906 C 113.183594 58.195312 112.832031 58.851562 112.414062 59.476562 C 112 60.097656 111.523438 60.671875 110.996094 61.199219 C 110.464844 61.730469 109.890625 62.203125 109.265625 62.617188 C 108.644531 63.03125 107.984375 63.382812 107.292969 63.667969 C 106.601562 63.957031 105.886719 64.171875 105.152344 64.316406 C 104.417969 64.464844 103.675781 64.535156 102.925781 64.535156 C 102.175781 64.535156 101.433594 64.464844 100.699219 64.316406 C 99.964844 64.171875 99.25 63.957031 98.558594 63.667969 C 97.867188 63.382812 97.210938 63.03125 96.585938 62.617188 C 95.964844 62.203125 95.386719 61.730469 94.855469 61.199219 C 94.328125 60.671875 93.855469 60.097656 93.4375 59.476562 C 93.023438 58.851562 92.671875 58.195312 92.382812 57.503906 C 92.097656 56.816406 91.878906 56.101562 91.734375 55.371094 C 91.589844 54.636719 91.515625 53.894531 91.515625 53.148438 C 91.515625 52.398438 91.589844 51.660156 91.734375 50.925781 C 91.878906 50.191406 92.097656 49.480469 92.382812 48.789062 C 92.671875 48.097656 93.023438 47.441406 93.4375 46.820312 C 93.855469 46.199219 94.328125 45.625 94.855469 45.09375 C 95.386719 44.566406 95.964844 44.09375 96.585938 43.679688 C 97.210938 43.261719 97.867188 42.910156 98.558594 42.625 C 99.25 42.339844 99.964844 42.125 100.699219 41.976562 C 101.433594 41.832031 102.175781 41.757812 102.925781 41.757812 C 103.675781 41.757812 104.417969 41.832031 105.152344 41.976562 C 105.886719 42.125 106.601562 42.339844 107.292969 42.625 C 107.984375 42.910156 108.644531 43.261719 109.265625 43.679688 C 109.890625 44.09375 110.464844 44.566406 110.996094 45.09375 C 111.523438 45.625 112 46.199219 112.414062 46.820312 C 112.832031 47.441406 113.183594 48.097656 113.46875 48.789062 C 113.757812 49.480469 113.972656 50.191406 114.117188 50.925781 C 114.265625 51.660156 114.335938 52.398438 114.335938 53.148438 Z M 114.335938 53.148438 "/><path style=" stroke:none;fill-rule:nonzero;fill:#000000;fill-opacity:1;" d="M 102.925781 65.058594 C 96.34375 65.058594 90.992188 59.714844 90.992188 53.148438 C 90.992188 46.578125 96.34375 41.238281 102.925781 41.238281 C 109.507812 41.238281 114.859375 46.578125 114.859375 53.148438 C 114.859375 59.714844 109.507812 65.058594 102.925781 65.058594 Z M 102.925781 42.28125 C 96.921875 42.28125 92.039062 47.152344 92.039062 53.148438 C 92.039062 59.140625 96.921875 64.015625 102.925781 64.015625 C 108.933594 64.015625 113.816406 59.140625 113.816406 53.148438 C 113.816406 47.152344 108.933594 42.28125 102.925781 42.28125 Z M 102.925781 42.28125 "/><path style=" stroke:none;fill-rule:nonzero;fill:#f75b2b;fill-opacity:1;" d="M 114.335938 53.148438 C 114.335938 53.894531 114.265625 54.636719 114.117188 55.371094 C 113.972656 56.101562 113.757812 56.816406 113.46875 57.503906 C 113.183594 58.195312 112.832031 58.851562 112.414062 59.476562 C 112 60.097656 111.523438 60.671875 110.996094 61.199219 C 110.464844 61.730469 109.890625 62.203125 109.265625 62.617188 C 108.644531 63.03125 107.984375 63.382812 107.292969 63.667969 C 106.601562 63.957031 105.886719 64.171875 105.152344 64.316406 C 104.417969 64.464844 103.675781 64.535156 102.925781 64.535156 C 102.175781 64.535156 101.433594 64.464844 100.699219 64.316406 C 99.964844 64.171875 99.25 63.957031 98.558594 63.667969 C 97.867188 63.382812 97.210938 63.03125 96.585938 62.617188 C 95.964844 62.203125 95.386719 61.730469 94.855469 61.199219 C 94.328125 60.671875 93.855469 60.097656 93.4375 59.476562 C 93.023438 58.851562 92.671875 58.195312 92.382812 57.503906 C 92.097656 56.816406 91.878906 56.101562 91.734375 55.371094 C 91.589844 54.636719 91.515625 53.894531 91.515625 53.148438 C 91.515625 52.398438 91.589844 51.660156 91.734375 50.925781 C 91.878906 50.191406 92.097656 49.480469 92.382812 48.789062 C 92.671875 48.097656 93.023438 47.441406 93.4375 46.820312 C 93.855469 46.199219 94.328125 45.625 94.855469 45.09375 C 95.386719 44.566406 95.964844 44.09375 96.585938 43.679688 C 97.210938 43.261719 97.867188 42.910156 98.558594 42.625 C 99.25 42.339844 99.964844 42.125 100.699219 41.976562 C 101.433594 41.832031 102.175781 41.757812 102.925781 41.757812 C 103.675781 41.757812 104.417969 41.832031 105.152344 41.976562 C 105.886719 42.125 106.601562 42.339844 107.292969 42.625 C 107.984375 42.910156 108.644531 43.261719 109.265625 43.679688 C 109.890625 44.09375 110.464844 44.566406 110.996094 45.09375 C 111.523438 45.625 112 46.199219 112.414062 46.820312 C 112.832031 47.441406 113.183594 48.097656 113.46875 48.789062 C 113.757812 49.480469 113.972656 50.191406 114.117188 50.925781 C 114.265625 51.660156 114.335938 52.398438 114.335938 53.148438 Z M 114.335938 53.148438 "/><path style=" stroke:none;fill-rule:nonzero;fill:#000000;fill-opacity:1;" d="M 102.925781 65.058594 C 96.34375 65.058594 90.992188 59.714844 90.992188 53.148438 C 90.992188 46.578125 96.34375 41.238281 102.925781 41.238281 C 109.507812 41.238281 114.859375 46.578125 114.859375 53.148438 C 114.859375 59.714844 109.507812 65.058594 102.925781 65.058594 Z M 102.925781 42.28125 C 96.921875 42.28125 92.039062 47.152344 92.039062 53.148438 C 92.039062 59.140625 96.921875 64.015625 102.925781 64.015625 C 108.933594 64.015625 113.816406 59.140625 113.816406 53.148438 C 113.816406 47.152344 108.933594 42.28125 102.925781 42.28125 Z M 102.925781 42.28125 "/><path style=" stroke:none;fill-rule:nonzero;fill:#fffbeb;fill-opacity:1;" d="M 102.925781 56.761719 C 102.378906 56.761719 101.917969 56.339844 101.875 55.792969 L 101.253906 47.824219 C 101.175781 46.851562 101.949219 46.019531 102.925781 46.019531 C 103.902344 46.019531 104.675781 46.851562 104.597656 47.824219 L 103.976562 55.792969 C 103.933594 56.339844 103.476562 56.761719 102.925781 56.761719 Z M 102.925781 56.761719 "/><path style=" stroke:none;fill-rule:nonzero;fill:#000000;fill-opacity:1;" d="M 102.925781 57.285156 C 102.109375 57.285156 101.414062 56.648438 101.351562 55.835938 L 100.730469 47.867188 C 100.683594 47.257812 100.894531 46.652344 101.3125 46.203125 C 101.722656 45.753906 102.316406 45.5 102.925781 45.5 C 103.539062 45.5 104.128906 45.753906 104.542969 46.203125 C 104.953125 46.652344 105.167969 47.257812 105.121094 47.867188 L 104.5 55.835938 C 104.4375 56.648438 103.746094 57.285156 102.925781 57.285156 Z M 102.925781 46.542969 C 102.601562 46.542969 102.300781 46.671875 102.078125 46.914062 C 101.859375 47.152344 101.75 47.460938 101.777344 47.785156 L 102.398438 55.75 C 102.417969 56.027344 102.65625 56.242188 102.925781 56.242188 C 103.199219 56.242188 103.433594 56.027344 103.453125 55.75 L 104.078125 47.785156 C 104.101562 47.460938 103.992188 47.148438 103.773438 46.914062 C 103.554688 46.671875 103.25 46.542969 102.925781 46.542969 Z M 102.925781 46.542969 "/><path style=" stroke:none;fill-rule:nonzero;fill:#fffbeb;fill-opacity:1;" d="M 103.972656 59.234375 C 103.972656 59.375 103.945312 59.507812 103.890625 59.636719 C 103.839844 59.761719 103.765625 59.875 103.664062 59.972656 C 103.566406 60.070312 103.453125 60.148438 103.328125 60.199219 C 103.199219 60.253906 103.066406 60.277344 102.925781 60.277344 C 102.789062 60.277344 102.65625 60.253906 102.527344 60.199219 C 102.398438 60.148438 102.285156 60.070312 102.1875 59.972656 C 102.089844 59.875 102.011719 59.761719 101.960938 59.636719 C 101.90625 59.507812 101.882812 59.375 101.882812 59.234375 C 101.882812 59.097656 101.90625 58.964844 101.960938 58.835938 C 102.011719 58.707031 102.089844 58.59375 102.1875 58.496094 C 102.285156 58.398438 102.398438 58.324219 102.527344 58.273438 C 102.65625 58.21875 102.789062 58.191406 102.925781 58.191406 C 103.066406 58.191406 103.199219 58.21875 103.328125 58.273438 C 103.453125 58.324219 103.566406 58.398438 103.664062 58.496094 C 103.765625 58.59375 103.839844 58.707031 103.890625 58.835938 C 103.945312 58.964844 103.972656 59.097656 103.972656 59.234375 Z M 103.972656 59.234375 "/><path style=" stroke:none;fill-rule:nonzero;fill:#000000;fill-opacity:1;" d="M 102.925781 60.800781 C 102.0625 60.800781 101.359375 60.101562 101.359375 59.234375 C 101.359375 58.371094 102.058594 57.671875 102.925781 57.671875 C 103.792969 57.671875 104.496094 58.371094 104.496094 59.234375 C 104.496094 60.101562 103.792969 60.800781 102.925781 60.800781 Z M 102.925781 58.71875 C 102.640625 58.71875 102.402344 58.953125 102.402344 59.242188 C 102.402344 59.527344 102.640625 59.761719 102.925781 59.761719 C 103.214844 59.761719 103.449219 59.527344 103.449219 59.242188 C 103.449219 58.953125 103.214844 58.71875 102.925781 58.71875 Z M 102.925781 58.71875 "/><path style=" stroke:none;fill-rule:nonzero;fill:#000000;fill-opacity:1;" d="M 76.914062 110.765625 L 74.179688 115.605469 L 74.179688 118.296875 L 73.140625 118.296875 L 73.140625 115.585938 L 70.40625 110.765625 L 71.652344 110.765625 L 73.152344 113.519531 L 73.707031 114.625 L 74.210938 113.621094 L 75.734375 110.765625 Z M 76.914062 110.765625 "/><path style=" stroke:none;fill-rule:nonzero;fill:#000000;fill-opacity:1;" d="M 82.882812 115.359375 C 82.882812 115.808594 82.820312 116.222656 82.695312 116.597656 C 82.570312 116.972656 82.386719 117.289062 82.148438 117.554688 C 81.90625 117.824219 81.621094 118.03125 81.273438 118.175781 C 80.929688 118.324219 80.542969 118.402344 80.109375 118.402344 C 79.675781 118.402344 79.320312 118.339844 78.988281 118.207031 C 78.660156 118.078125 78.382812 117.890625 78.152344 117.640625 C 77.921875 117.390625 77.75 117.082031 77.625 116.710938 C 77.503906 116.339844 77.441406 115.917969 77.441406 115.4375 C 77.441406 114.988281 77.503906 114.578125 77.632812 114.207031 C 77.757812 113.835938 77.9375 113.519531 78.179688 113.253906 C 78.421875 112.988281 78.707031 112.777344 79.054688 112.632812 C 79.398438 112.484375 79.785156 112.414062 80.21875 112.414062 C 80.652344 112.414062 81.007812 112.476562 81.335938 112.605469 C 81.667969 112.734375 81.945312 112.921875 82.171875 113.167969 C 82.402344 113.414062 82.574219 113.726562 82.695312 114.09375 C 82.816406 114.460938 82.878906 114.886719 82.878906 115.359375 Z M 81.855469 115.40625 C 81.855469 115.046875 81.8125 114.738281 81.734375 114.46875 C 81.65625 114.203125 81.542969 113.976562 81.394531 113.800781 C 81.25 113.621094 81.070312 113.488281 80.863281 113.398438 C 80.652344 113.308594 80.417969 113.261719 80.160156 113.261719 C 79.863281 113.261719 79.601562 113.320312 79.390625 113.441406 C 79.183594 113.558594 79.003906 113.714844 78.871094 113.910156 C 78.734375 114.109375 78.632812 114.332031 78.566406 114.59375 C 78.503906 114.855469 78.472656 115.125 78.472656 115.40625 C 78.472656 115.761719 78.515625 116.078125 78.59375 116.347656 C 78.671875 116.617188 78.785156 116.835938 78.933594 117.019531 C 79.078125 117.195312 79.257812 117.332031 79.464844 117.421875 C 79.675781 117.507812 79.910156 117.554688 80.171875 117.554688 C 80.476562 117.554688 80.730469 117.5 80.945312 117.378906 C 81.160156 117.265625 81.332031 117.101562 81.46875 116.910156 C 81.605469 116.710938 81.703125 116.488281 81.765625 116.226562 C 81.828125 115.964844 81.859375 115.695312 81.859375 115.40625 Z M 81.855469 115.40625 "/><path style=" stroke:none;fill-rule:nonzero;fill:#000000;fill-opacity:1;" d="M 89 118.296875 L 88.101562 118.296875 L 88.066406 117.363281 C 87.890625 117.5625 87.726562 117.730469 87.574219 117.863281 C 87.417969 117.996094 87.265625 118.105469 87.109375 118.183594 C 86.957031 118.261719 86.800781 118.316406 86.644531 118.355469 C 86.484375 118.386719 86.324219 118.402344 86.152344 118.402344 C 85.554688 118.402344 85.105469 118.230469 84.804688 117.875 C 84.5 117.523438 84.347656 117 84.347656 116.289062 L 84.347656 112.507812 L 85.351562 112.507812 L 85.351562 116.207031 C 85.351562 117.09375 85.6875 117.535156 86.355469 117.535156 C 86.480469 117.535156 86.601562 117.515625 86.714844 117.476562 C 86.832031 117.441406 86.957031 117.378906 87.085938 117.289062 C 87.21875 117.203125 87.355469 117.078125 87.503906 116.925781 C 87.652344 116.773438 87.820312 116.574219 88.007812 116.339844 L 88.007812 112.5 L 89.011719 112.5 L 89.011719 118.285156 Z M 89 118.296875 "/><path style=" stroke:none;fill-rule:nonzero;fill:#000000;fill-opacity:1;" d="M 102.289062 118.296875 L 101.257812 118.296875 L 101.257812 114.839844 L 98.089844 114.839844 L 98.089844 118.296875 L 97.0625 118.296875 L 97.0625 110.765625 L 98.089844 110.765625 L 98.089844 113.953125 L 101.257812 113.953125 L 101.257812 110.765625 L 102.289062 110.765625 Z M 102.289062 118.296875 "/><path style=" stroke:none;fill-rule:nonzero;fill:#000000;fill-opacity:1;" d="M 107.574219 118.296875 L 107.550781 117.519531 C 107.238281 117.832031 106.914062 118.058594 106.589844 118.191406 C 106.265625 118.332031 105.921875 118.402344 105.566406 118.402344 C 105.238281 118.402344 104.953125 118.359375 104.71875 118.277344 C 104.484375 118.191406 104.289062 118.078125 104.140625 117.925781 C 103.988281 117.78125 103.878906 117.601562 103.804688 117.40625 C 103.730469 117.207031 103.699219 116.988281 103.699219 116.753906 C 103.699219 116.175781 103.914062 115.71875 104.347656 115.390625 C 104.78125 115.0625 105.417969 114.902344 106.265625 114.902344 L 107.46875 114.902344 L 107.46875 114.394531 C 107.46875 114.050781 107.359375 113.78125 107.140625 113.574219 C 106.921875 113.371094 106.585938 113.269531 106.136719 113.269531 C 105.808594 113.269531 105.488281 113.304688 105.167969 113.378906 C 104.851562 113.449219 104.519531 113.554688 104.1875 113.691406 L 104.1875 112.789062 C 104.3125 112.742188 104.453125 112.699219 104.609375 112.652344 C 104.765625 112.609375 104.929688 112.570312 105.105469 112.53125 C 105.277344 112.496094 105.460938 112.46875 105.648438 112.449219 C 105.839844 112.429688 106.03125 112.417969 106.21875 112.417969 C 106.570312 112.417969 106.882812 112.453125 107.164062 112.53125 C 107.449219 112.609375 107.683594 112.726562 107.875 112.882812 C 108.070312 113.039062 108.222656 113.238281 108.328125 113.476562 C 108.429688 113.714844 108.484375 113.992188 108.484375 114.316406 L 108.484375 118.308594 L 107.585938 118.308594 Z M 107.464844 115.667969 L 106.1875 115.667969 C 105.9375 115.667969 105.722656 115.695312 105.539062 115.742188 C 105.355469 115.792969 105.210938 115.859375 105.097656 115.953125 C 104.980469 116.046875 104.898438 116.160156 104.839844 116.285156 C 104.78125 116.414062 104.757812 116.554688 104.757812 116.714844 C 104.757812 116.824219 104.773438 116.9375 104.808594 117.035156 C 104.84375 117.132812 104.898438 117.226562 104.976562 117.304688 C 105.054688 117.382812 105.152344 117.445312 105.273438 117.492188 C 105.398438 117.539062 105.546875 117.5625 105.722656 117.5625 C 105.953125 117.5625 106.21875 117.492188 106.519531 117.351562 C 106.816406 117.210938 107.128906 116.992188 107.464844 116.683594 L 107.464844 115.65625 Z M 107.464844 115.667969 "/><path style=" stroke:none;fill-rule:nonzero;fill:#000000;fill-opacity:1;" d="M 109.8125 112.511719 L 110.957031 112.511719 L 112.378906 116.339844 L 112.679688 117.273438 L 113 116.320312 L 114.410156 112.515625 L 115.515625 112.515625 L 113.238281 118.300781 L 112.085938 118.300781 L 109.816406 112.515625 Z M 109.8125 112.511719 "/><path style=" stroke:none;fill-rule:nonzero;fill:#000000;fill-opacity:1;" d="M 121.753906 115.097656 C 121.753906 115.238281 121.753906 115.359375 121.75 115.460938 C 121.75 115.554688 121.738281 115.648438 121.734375 115.730469 L 117.664062 115.730469 C 117.664062 116.320312 117.828125 116.777344 118.160156 117.09375 C 118.488281 117.410156 118.96875 117.566406 119.589844 117.566406 C 119.757812 117.566406 119.929688 117.5625 120.097656 117.546875 C 120.265625 117.53125 120.433594 117.515625 120.589844 117.488281 C 120.746094 117.46875 120.898438 117.441406 121.042969 117.410156 C 121.191406 117.382812 121.320312 117.347656 121.445312 117.316406 L 121.445312 118.140625 C 121.175781 118.21875 120.867188 118.28125 120.523438 118.328125 C 120.175781 118.375 119.820312 118.402344 119.449219 118.402344 C 118.953125 118.402344 118.523438 118.332031 118.167969 118.199219 C 117.808594 118.0625 117.515625 117.871094 117.292969 117.613281 C 117.0625 117.359375 116.894531 117.046875 116.785156 116.675781 C 116.675781 116.304688 116.621094 115.886719 116.621094 115.417969 C 116.621094 115.011719 116.679688 114.625 116.800781 114.265625 C 116.921875 113.90625 117.085938 113.582031 117.3125 113.308594 C 117.535156 113.035156 117.8125 112.820312 118.136719 112.65625 C 118.460938 112.496094 118.839844 112.417969 119.25 112.417969 C 119.664062 112.417969 120.015625 112.480469 120.328125 112.605469 C 120.640625 112.730469 120.902344 112.914062 121.117188 113.144531 C 121.332031 113.371094 121.496094 113.660156 121.605469 113.988281 C 121.714844 114.320312 121.769531 114.691406 121.769531 115.105469 Z M 120.710938 114.957031 C 120.71875 114.703125 120.695312 114.46875 120.636719 114.253906 C 120.574219 114.039062 120.480469 113.859375 120.347656 113.707031 C 120.21875 113.554688 120.0625 113.433594 119.867188 113.347656 C 119.675781 113.257812 119.457031 113.214844 119.199219 113.214844 C 118.980469 113.214844 118.78125 113.257812 118.597656 113.339844 C 118.414062 113.425781 118.265625 113.542969 118.132812 113.699219 C 118.003906 113.859375 117.898438 114.039062 117.8125 114.253906 C 117.730469 114.46875 117.683594 114.707031 117.664062 114.964844 L 120.710938 114.964844 Z M 120.710938 114.957031 "/><path style=" stroke:none;fill-rule:nonzero;fill:#000000;fill-opacity:1;" d="M 135.382812 118.296875 L 134.265625 118.296875 L 133.738281 116.652344 L 130.59375 116.652344 L 130.0625 118.296875 L 128.996094 118.296875 L 131.5 110.765625 L 132.910156 110.765625 Z M 133.445312 115.742188 L 132.167969 111.714844 L 130.894531 115.742188 Z M 133.445312 115.742188 "/><path style=" stroke:none;fill-rule:nonzero;fill:#000000;fill-opacity:1;" d="M 66.476562 133.5625 L 65.136719 133.5625 L 62.9375 128.867188 L 62.300781 127.359375 L 62.300781 133.566406 L 61.34375 133.566406 L 61.34375 126.035156 L 62.664062 126.035156 L 64.761719 130.484375 L 65.519531 132.207031 L 65.519531 126.035156 L 66.476562 126.035156 L 66.476562 133.566406 Z M 66.476562 133.5625 "/><path style=" stroke:none;fill-rule:nonzero;fill:#000000;fill-opacity:1;" d="M 72.976562 130.363281 C 72.976562 130.503906 72.976562 130.625 72.972656 130.722656 C 72.972656 130.816406 72.960938 130.910156 72.957031 130.996094 L 68.886719 130.996094 C 68.886719 131.585938 69.050781 132.042969 69.382812 132.355469 C 69.710938 132.675781 70.191406 132.832031 70.8125 132.832031 C 70.980469 132.832031 71.152344 132.828125 71.320312 132.8125 C 71.488281 132.796875 71.65625 132.78125 71.8125 132.753906 C 71.96875 132.734375 72.121094 132.707031 72.265625 132.675781 C 72.414062 132.648438 72.542969 132.613281 72.671875 132.582031 L 72.671875 133.40625 C 72.398438 133.484375 72.089844 133.546875 71.746094 133.59375 C 71.398438 133.640625 71.042969 133.667969 70.671875 133.667969 C 70.175781 133.667969 69.746094 133.597656 69.390625 133.464844 C 69.03125 133.328125 68.738281 133.132812 68.515625 132.878906 C 68.285156 132.625 68.117188 132.308594 68.007812 131.941406 C 67.898438 131.570312 67.84375 131.152344 67.84375 130.683594 C 67.84375 130.277344 67.902344 129.890625 68.023438 129.53125 C 68.144531 129.167969 68.308594 128.847656 68.535156 128.574219 C 68.761719 128.296875 69.035156 128.085938 69.359375 127.921875 C 69.683594 127.761719 70.0625 127.683594 70.472656 127.683594 C 70.886719 127.683594 71.238281 127.746094 71.550781 127.871094 C 71.863281 127.996094 72.125 128.179688 72.339844 128.40625 C 72.554688 128.636719 72.71875 128.925781 72.828125 129.253906 C 72.9375 129.585938 72.996094 129.957031 72.996094 130.371094 Z M 71.933594 130.21875 C 71.945312 129.960938 71.917969 129.726562 71.859375 129.515625 C 71.796875 129.300781 71.703125 129.117188 71.574219 128.964844 C 71.441406 128.816406 71.285156 128.695312 71.089844 128.605469 C 70.898438 128.515625 70.679688 128.476562 70.421875 128.476562 C 70.203125 128.476562 70.003906 128.515625 69.820312 128.601562 C 69.636719 128.683594 69.488281 128.804688 69.355469 128.960938 C 69.226562 129.117188 69.121094 129.300781 69.035156 129.515625 C 68.953125 129.726562 68.90625 129.96875 68.886719 130.222656 L 71.933594 130.222656 Z M 71.933594 130.21875 "/><path style=" stroke:none;fill-rule:nonzero;fill:#000000;fill-opacity:1;" d="M 79.957031 127.777344 L 79.117188 133.5625 L 77.898438 133.5625 L 77.0625 131.140625 L 76.894531 130.550781 L 76.707031 131.171875 L 75.902344 133.558594 L 74.71875 133.558594 L 73.882812 127.769531 L 74.867188 127.769531 L 75.351562 131.699219 L 75.457031 132.578125 L 75.703125 131.808594 L 76.542969 129.210938 L 77.265625 129.210938 L 78.167969 131.777344 L 78.429688 132.542969 L 78.519531 131.730469 L 78.96875 127.769531 L 79.960938 127.769531 Z M 79.957031 127.777344 "/><path style=" stroke:none;fill-rule:nonzero;fill:#000000;fill-opacity:1;" d="M 92.890625 133.5625 L 91.886719 133.5625 L 91.734375 128.867188 L 91.671875 127.0625 L 91.320312 128.109375 L 90.207031 131.109375 L 89.496094 131.109375 L 88.4375 128.230469 L 88.085938 127.066406 L 88.066406 128.949219 L 87.933594 133.566406 L 86.960938 133.566406 L 87.332031 126.035156 L 88.550781 126.035156 L 89.570312 128.871094 L 89.898438 129.828125 L 90.21875 128.871094 L 91.285156 126.035156 L 92.539062 126.035156 L 92.90625 133.566406 Z M 92.890625 133.5625 "/><path style=" stroke:none;fill-rule:nonzero;fill:#000000;fill-opacity:1;" d="M 98.996094 130.363281 C 98.996094 130.503906 98.996094 130.625 98.988281 130.722656 C 98.988281 130.816406 98.980469 130.910156 98.972656 130.996094 L 94.902344 130.996094 C 94.902344 131.585938 95.070312 132.042969 95.398438 132.355469 C 95.726562 132.675781 96.210938 132.832031 96.832031 132.832031 C 97 132.832031 97.171875 132.828125 97.339844 132.8125 C 97.503906 132.796875 97.671875 132.78125 97.828125 132.753906 C 97.988281 132.734375 98.136719 132.707031 98.285156 132.675781 C 98.429688 132.648438 98.5625 132.613281 98.6875 132.582031 L 98.6875 133.40625 C 98.414062 133.484375 98.105469 133.546875 97.761719 133.59375 C 97.417969 133.640625 97.0625 133.667969 96.691406 133.667969 C 96.195312 133.667969 95.765625 133.597656 95.410156 133.464844 C 95.046875 133.328125 94.757812 133.132812 94.53125 132.878906 C 94.300781 132.625 94.132812 132.308594 94.023438 131.941406 C 93.914062 131.570312 93.863281 131.152344 93.863281 130.683594 C 93.863281 130.277344 93.917969 129.890625 94.039062 129.53125 C 94.160156 129.167969 94.328125 128.847656 94.550781 128.574219 C 94.777344 128.296875 95.054688 128.085938 95.378906 127.921875 C 95.703125 127.761719 96.078125 127.683594 96.492188 127.683594 C 96.90625 127.683594 97.253906 127.746094 97.566406 127.871094 C 97.882812 127.996094 98.144531 128.179688 98.359375 128.40625 C 98.570312 128.636719 98.734375 128.925781 98.84375 129.253906 C 98.953125 129.585938 99.011719 129.957031 99.011719 130.371094 Z M 97.949219 130.21875 C 97.960938 129.960938 97.933594 129.726562 97.875 129.515625 C 97.8125 129.300781 97.71875 129.117188 97.589844 128.964844 C 97.457031 128.816406 97.300781 128.695312 97.109375 128.605469 C 96.914062 128.515625 96.695312 128.476562 96.4375 128.476562 C 96.21875 128.476562 96.019531 128.515625 95.839844 128.601562 C 95.65625 128.683594 95.503906 128.804688 95.371094 128.960938 C 95.242188 129.117188 95.136719 129.300781 95.054688 129.515625 C 94.96875 129.726562 94.921875 129.96875 94.902344 130.222656 L 97.949219 130.222656 Z M 97.949219 130.21875 "/><path style=" stroke:none;fill-rule:nonzero;fill:#000000;fill-opacity:1;" d="M 105.191406 131.980469 C 105.191406 132.183594 105.152344 132.367188 105.085938 132.527344 C 105.015625 132.691406 104.921875 132.832031 104.804688 132.957031 C 104.683594 133.082031 104.546875 133.1875 104.390625 133.273438 C 104.234375 133.363281 104.066406 133.4375 103.882812 133.496094 C 103.707031 133.550781 103.523438 133.59375 103.328125 133.621094 C 103.140625 133.644531 102.957031 133.660156 102.773438 133.660156 C 102.382812 133.660156 102.023438 133.644531 101.691406 133.609375 C 101.363281 133.574219 101.039062 133.519531 100.726562 133.441406 L 100.726562 132.519531 C 101.066406 132.613281 101.398438 132.6875 101.734375 132.738281 C 102.070312 132.789062 102.402344 132.8125 102.734375 132.8125 C 103.214844 132.8125 103.570312 132.742188 103.800781 132.613281 C 104.03125 132.480469 104.144531 132.292969 104.144531 132.054688 C 104.144531 131.949219 104.125 131.855469 104.085938 131.773438 C 104.050781 131.6875 103.980469 131.609375 103.886719 131.539062 C 103.792969 131.464844 103.640625 131.386719 103.4375 131.304688 C 103.234375 131.21875 102.957031 131.132812 102.613281 131.027344 C 102.351562 130.949219 102.109375 130.859375 101.886719 130.765625 C 101.660156 130.671875 101.472656 130.550781 101.3125 130.417969 C 101.148438 130.28125 101.023438 130.125 100.929688 129.941406 C 100.835938 129.757812 100.789062 129.550781 100.789062 129.300781 C 100.789062 129.136719 100.824219 128.960938 100.902344 128.769531 C 100.976562 128.574219 101.105469 128.398438 101.285156 128.230469 C 101.46875 128.0625 101.707031 127.929688 102.015625 127.816406 C 102.324219 127.707031 102.710938 127.65625 103.171875 127.65625 C 103.398438 127.65625 103.652344 127.667969 103.929688 127.691406 C 104.207031 127.71875 104.496094 127.761719 104.796875 127.824219 L 104.796875 128.714844 C 104.484375 128.636719 104.179688 128.578125 103.898438 128.542969 C 103.617188 128.507812 103.371094 128.484375 103.160156 128.484375 C 102.910156 128.484375 102.703125 128.507812 102.527344 128.542969 C 102.355469 128.578125 102.21875 128.636719 102.109375 128.699219 C 102.007812 128.769531 101.929688 128.847656 101.882812 128.933594 C 101.832031 129.023438 101.8125 129.121094 101.8125 129.226562 C 101.8125 129.332031 101.832031 129.425781 101.875 129.507812 C 101.917969 129.59375 101.992188 129.675781 102.101562 129.753906 C 102.210938 129.832031 102.363281 129.910156 102.558594 129.988281 C 102.757812 130.066406 103.015625 130.148438 103.328125 130.246094 C 103.675781 130.34375 103.960938 130.449219 104.195312 130.558594 C 104.433594 130.667969 104.621094 130.785156 104.765625 130.921875 C 104.914062 131.058594 105.015625 131.210938 105.082031 131.375 C 105.144531 131.542969 105.175781 131.734375 105.175781 131.949219 Z M 105.191406 131.980469 "/><path style=" stroke:none;fill-rule:nonzero;fill:#000000;fill-opacity:1;" d="M 111.691406 131.980469 C 111.691406 132.183594 111.65625 132.367188 111.589844 132.527344 C 111.519531 132.691406 111.425781 132.832031 111.304688 132.957031 C 111.1875 133.082031 111.050781 133.1875 110.894531 133.273438 C 110.734375 133.363281 110.570312 133.4375 110.386719 133.496094 C 110.207031 133.550781 110.023438 133.59375 109.832031 133.621094 C 109.644531 133.644531 109.460938 133.660156 109.277344 133.660156 C 108.886719 133.660156 108.523438 133.644531 108.195312 133.609375 C 107.867188 133.574219 107.542969 133.519531 107.230469 133.441406 L 107.230469 132.519531 C 107.570312 132.613281 107.902344 132.6875 108.238281 132.738281 C 108.570312 132.789062 108.90625 132.8125 109.234375 132.8125 C 109.71875 132.8125 110.074219 132.742188 110.300781 132.613281 C 110.53125 132.480469 110.648438 132.292969 110.648438 132.054688 C 110.648438 131.949219 110.625 131.855469 110.589844 131.773438 C 110.554688 131.6875 110.484375 131.609375 110.390625 131.539062 C 110.296875 131.464844 110.144531 131.386719 109.941406 131.304688 C 109.738281 131.21875 109.460938 131.132812 109.117188 131.027344 C 108.855469 130.949219 108.613281 130.859375 108.390625 130.765625 C 108.164062 130.671875 107.976562 130.550781 107.8125 130.417969 C 107.652344 130.28125 107.527344 130.125 107.433594 129.941406 C 107.339844 129.757812 107.292969 129.550781 107.292969 129.300781 C 107.292969 129.136719 107.328125 128.960938 107.40625 128.769531 C 107.480469 128.574219 107.609375 128.398438 107.789062 128.230469 C 107.972656 128.0625 108.210938 127.929688 108.519531 127.816406 C 108.828125 127.707031 109.214844 127.65625 109.675781 127.65625 C 109.898438 127.65625 110.15625 127.667969 110.433594 127.691406 C 110.710938 127.71875 110.996094 127.761719 111.300781 127.824219 L 111.300781 128.714844 C 110.988281 128.636719 110.683594 128.578125 110.402344 128.542969 C 110.121094 128.507812 109.875 128.484375 109.664062 128.484375 C 109.414062 128.484375 109.203125 128.507812 109.03125 128.542969 C 108.859375 128.578125 108.722656 128.636719 108.613281 128.699219 C 108.507812 128.769531 108.429688 128.847656 108.382812 128.933594 C 108.335938 129.023438 108.316406 129.121094 108.316406 129.226562 C 108.316406 129.332031 108.335938 129.425781 108.378906 129.507812 C 108.421875 129.59375 108.492188 129.675781 108.601562 129.753906 C 108.714844 129.832031 108.863281 129.910156 109.0625 129.988281 C 109.261719 130.066406 109.519531 130.148438 109.832031 130.246094 C 110.175781 130.34375 110.464844 130.449219 110.699219 130.558594 C 110.933594 130.667969 111.121094 130.785156 111.269531 130.921875 C 111.414062 131.058594 111.519531 131.210938 111.582031 131.375 C 111.644531 131.542969 111.675781 131.734375 111.675781 131.949219 Z M 111.691406 131.980469 "/><path style=" stroke:none;fill-rule:nonzero;fill:#000000;fill-opacity:1;" d="M 117.328125 133.5625 L 117.308594 132.785156 C 116.992188 133.097656 116.667969 133.320312 116.34375 133.457031 C 116.019531 133.597656 115.675781 133.667969 115.320312 133.667969 C 114.992188 133.667969 114.710938 133.625 114.472656 133.542969 C 114.238281 133.457031 114.046875 133.34375 113.894531 133.191406 C 113.742188 133.046875 113.632812 132.867188 113.558594 132.671875 C 113.484375 132.472656 113.453125 132.253906 113.453125 132.019531 C 113.453125 131.4375 113.667969 130.984375 114.101562 130.65625 C 114.535156 130.328125 115.175781 130.164062 116.019531 130.164062 L 117.222656 130.164062 L 117.222656 129.660156 C 117.222656 129.316406 117.113281 129.042969 116.894531 128.839844 C 116.675781 128.636719 116.339844 128.53125 115.890625 128.53125 C 115.5625 128.53125 115.242188 128.570312 114.921875 128.640625 C 114.605469 128.714844 114.273438 128.820312 113.941406 128.957031 L 113.941406 128.054688 C 114.066406 128.007812 114.207031 127.964844 114.363281 127.917969 C 114.519531 127.875 114.683594 127.832031 114.859375 127.796875 C 115.03125 127.761719 115.214844 127.734375 115.402344 127.714844 C 115.59375 127.691406 115.785156 127.683594 115.972656 127.683594 C 116.324219 127.683594 116.636719 127.71875 116.921875 127.796875 C 117.203125 127.875 117.4375 127.992188 117.632812 128.148438 C 117.824219 128.304688 117.976562 128.5 118.082031 128.742188 C 118.183594 128.980469 118.238281 129.257812 118.238281 129.582031 L 118.238281 133.574219 L 117.339844 133.574219 Z M 117.21875 130.925781 L 115.941406 130.925781 C 115.691406 130.925781 115.476562 130.953125 115.292969 131 C 115.113281 131.054688 114.964844 131.121094 114.851562 131.214844 C 114.734375 131.308594 114.652344 131.417969 114.59375 131.542969 C 114.535156 131.671875 114.511719 131.816406 114.511719 131.976562 C 114.511719 132.085938 114.527344 132.195312 114.5625 132.292969 C 114.597656 132.394531 114.652344 132.488281 114.730469 132.566406 C 114.808594 132.644531 114.90625 132.707031 115.027344 132.753906 C 115.152344 132.800781 115.300781 132.820312 115.476562 132.820312 C 115.707031 132.820312 115.972656 132.753906 116.273438 132.613281 C 116.570312 132.472656 116.882812 132.253906 117.21875 131.945312 L 117.21875 130.917969 Z M 117.21875 130.925781 "/><path style=" stroke:none;fill-rule:nonzero;fill:#000000;fill-opacity:1;" d="M 124.285156 128.59375 C 124.394531 128.730469 124.480469 128.886719 124.535156 129.066406 C 124.59375 129.242188 124.625 129.4375 124.625 129.644531 C 124.625 129.941406 124.574219 130.21875 124.464844 130.464844 C 124.355469 130.714844 124.195312 130.921875 124 131.101562 C 123.800781 131.277344 123.558594 131.414062 123.277344 131.511719 C 122.996094 131.609375 122.691406 131.65625 122.355469 131.65625 C 122.117188 131.65625 121.886719 131.632812 121.675781 131.578125 C 121.46875 131.527344 121.296875 131.464844 121.175781 131.386719 C 121.101562 131.496094 121.039062 131.59375 120.992188 131.695312 C 120.941406 131.789062 120.917969 131.898438 120.917969 132.019531 C 120.917969 132.164062 120.988281 132.285156 121.128906 132.382812 C 121.269531 132.476562 121.453125 132.527344 121.6875 132.539062 L 123.214844 132.597656 C 123.5 132.609375 123.769531 132.640625 124.015625 132.707031 C 124.257812 132.773438 124.46875 132.867188 124.640625 132.988281 C 124.8125 133.113281 124.953125 133.265625 125.050781 133.441406 C 125.148438 133.625 125.195312 133.832031 125.195312 134.074219 C 125.195312 134.328125 125.136719 134.574219 125.027344 134.804688 C 124.917969 135.035156 124.746094 135.238281 124.511719 135.414062 C 124.273438 135.589844 123.984375 135.726562 123.621094 135.832031 C 123.261719 135.9375 122.835938 135.988281 122.347656 135.988281 C 121.855469 135.988281 121.480469 135.953125 121.148438 135.875 C 120.820312 135.796875 120.546875 135.695312 120.339844 135.558594 C 120.128906 135.425781 119.972656 135.269531 119.878906 135.085938 C 119.785156 134.902344 119.734375 134.703125 119.734375 134.484375 C 119.734375 134.203125 119.800781 133.957031 119.929688 133.75 C 120.0625 133.542969 120.265625 133.332031 120.539062 133.140625 C 120.4375 133.09375 120.347656 133.035156 120.277344 132.96875 C 120.203125 132.898438 120.144531 132.820312 120.097656 132.738281 C 120.050781 132.65625 120.019531 132.566406 119.992188 132.476562 C 119.972656 132.382812 119.957031 132.292969 119.957031 132.207031 C 119.957031 131.957031 120.015625 131.726562 120.136719 131.523438 C 120.253906 131.320312 120.390625 131.121094 120.554688 130.933594 C 120.480469 130.84375 120.417969 130.761719 120.359375 130.671875 C 120.300781 130.582031 120.253906 130.496094 120.214844 130.394531 C 120.171875 130.296875 120.140625 130.191406 120.121094 130.078125 C 120.097656 129.960938 120.089844 129.832031 120.089844 129.6875 C 120.089844 129.382812 120.140625 129.113281 120.25 128.863281 C 120.359375 128.617188 120.511719 128.402344 120.710938 128.226562 C 120.910156 128.046875 121.148438 127.914062 121.425781 127.8125 C 121.703125 127.714844 122.011719 127.667969 122.351562 127.667969 C 122.492188 127.667969 122.628906 127.675781 122.757812 127.691406 C 122.890625 127.714844 123.003906 127.734375 123.105469 127.765625 L 125.207031 127.765625 L 125.207031 128.585938 L 124.273438 128.585938 Z M 120.792969 134.398438 C 120.792969 134.667969 120.933594 134.867188 121.222656 134.992188 C 121.503906 135.117188 121.902344 135.179688 122.414062 135.179688 C 122.734375 135.179688 123 135.148438 123.21875 135.089844 C 123.4375 135.035156 123.609375 134.957031 123.746094 134.859375 C 123.878906 134.765625 123.976562 134.65625 124.035156 134.539062 C 124.09375 134.417969 124.125 134.292969 124.125 134.167969 C 124.125 133.933594 124.03125 133.761719 123.835938 133.652344 C 123.644531 133.542969 123.351562 133.472656 122.953125 133.453125 L 121.441406 133.402344 C 121.316406 133.484375 121.210938 133.566406 121.128906 133.644531 C 121.042969 133.722656 120.980469 133.808594 120.933594 133.890625 C 120.886719 133.972656 120.855469 134.058594 120.835938 134.136719 C 120.816406 134.214844 120.804688 134.304688 120.804688 134.386719 Z M 121.101562 129.664062 C 121.101562 129.847656 121.132812 130.019531 121.195312 130.171875 C 121.257812 130.324219 121.34375 130.453125 121.457031 130.5625 C 121.574219 130.671875 121.703125 130.753906 121.855469 130.8125 C 122.007812 130.871094 122.171875 130.902344 122.363281 130.902344 C 122.5625 130.902344 122.738281 130.871094 122.894531 130.800781 C 123.050781 130.734375 123.183594 130.644531 123.289062 130.527344 C 123.390625 130.410156 123.476562 130.28125 123.527344 130.128906 C 123.585938 129.976562 123.613281 129.820312 123.613281 129.660156 C 123.613281 129.476562 123.578125 129.304688 123.515625 129.152344 C 123.453125 129.003906 123.371094 128.871094 123.257812 128.761719 C 123.144531 128.652344 123.011719 128.570312 122.859375 128.511719 C 122.707031 128.453125 122.539062 128.421875 122.351562 128.421875 C 122.152344 128.421875 121.976562 128.460938 121.816406 128.527344 C 121.660156 128.59375 121.53125 128.691406 121.425781 128.800781 C 121.320312 128.914062 121.238281 129.042969 121.1875 129.195312 C 121.132812 129.347656 121.101562 129.503906 121.101562 129.660156 Z M 121.101562 129.664062 "/><path style=" stroke:none;fill-rule:nonzero;fill:#000000;fill-opacity:1;" d="M 131.511719 130.363281 C 131.511719 130.503906 131.511719 130.625 131.503906 130.722656 C 131.503906 130.816406 131.496094 130.910156 131.488281 130.996094 L 127.417969 130.996094 C 127.417969 131.585938 127.585938 132.042969 127.914062 132.355469 C 128.242188 132.675781 128.722656 132.832031 129.347656 132.832031 C 129.511719 132.832031 129.6875 132.828125 129.851562 132.8125 C 130.019531 132.796875 130.1875 132.78125 130.34375 132.753906 C 130.5 132.734375 130.652344 132.707031 130.800781 132.675781 C 130.945312 132.648438 131.074219 132.613281 131.203125 132.582031 L 131.203125 133.40625 C 130.929688 133.484375 130.621094 133.546875 130.277344 133.59375 C 129.929688 133.640625 129.574219 133.667969 129.203125 133.667969 C 128.707031 133.667969 128.28125 133.597656 127.925781 133.464844 C 127.5625 133.328125 127.269531 133.132812 127.046875 132.878906 C 126.816406 132.625 126.648438 132.308594 126.539062 131.941406 C 126.429688 131.570312 126.375 131.152344 126.375 130.683594 C 126.375 130.277344 126.433594 129.890625 126.554688 129.53125 C 126.675781 129.167969 126.84375 128.847656 127.066406 128.574219 C 127.292969 128.296875 127.570312 128.085938 127.894531 127.921875 C 128.214844 127.761719 128.59375 127.683594 129.007812 127.683594 C 129.417969 127.683594 129.769531 127.746094 130.082031 127.871094 C 130.398438 127.996094 130.65625 128.179688 130.871094 128.40625 C 131.085938 128.636719 131.25 128.925781 131.359375 129.253906 C 131.46875 129.585938 131.527344 129.957031 131.527344 130.371094 Z M 130.464844 130.21875 C 130.476562 129.960938 130.449219 129.726562 130.390625 129.515625 C 130.328125 129.300781 130.234375 129.117188 130.105469 128.964844 C 129.972656 128.816406 129.816406 128.695312 129.621094 128.605469 C 129.429688 128.515625 129.210938 128.476562 128.953125 128.476562 C 128.734375 128.476562 128.535156 128.515625 128.351562 128.601562 C 128.167969 128.683594 128.019531 128.804688 127.886719 128.960938 C 127.757812 129.117188 127.652344 129.300781 127.570312 129.515625 C 127.484375 129.726562 127.4375 129.96875 127.417969 130.222656 L 130.464844 130.222656 Z M 130.464844 130.21875 "/><path style=" stroke:none;fill-rule:nonzero;fill:#000000;fill-opacity:1;" d="M 137.703125 131.980469 C 137.703125 132.183594 137.667969 132.367188 137.601562 132.527344 C 137.53125 132.691406 137.4375 132.832031 137.316406 132.957031 C 137.199219 133.082031 137.0625 133.1875 136.90625 133.273438 C 136.746094 133.363281 136.582031 133.4375 136.398438 133.496094 C 136.21875 133.550781 136.035156 133.59375 135.84375 133.621094 C 135.65625 133.644531 135.472656 133.660156 135.289062 133.660156 C 134.898438 133.660156 134.535156 133.644531 134.207031 133.609375 C 133.878906 133.574219 133.554688 133.519531 133.242188 133.441406 L 133.242188 132.519531 C 133.578125 132.613281 133.914062 132.6875 134.25 132.738281 C 134.582031 132.789062 134.917969 132.8125 135.246094 132.8125 C 135.726562 132.8125 136.082031 132.742188 136.3125 132.613281 C 136.542969 132.480469 136.660156 132.292969 136.660156 132.054688 C 136.660156 131.949219 136.636719 131.855469 136.601562 131.773438 C 136.566406 131.6875 136.496094 131.609375 136.402344 131.539062 C 136.308594 131.464844 136.15625 131.386719 135.953125 131.304688 C 135.75 131.21875 135.472656 131.132812 135.128906 131.027344 C 134.867188 130.949219 134.625 130.859375 134.402344 130.765625 C 134.175781 130.671875 133.988281 130.550781 133.824219 130.417969 C 133.664062 130.28125 133.539062 130.125 133.445312 129.941406 C 133.351562 129.757812 133.304688 129.550781 133.304688 129.300781 C 133.304688 129.136719 133.339844 128.960938 133.417969 128.769531 C 133.492188 128.574219 133.621094 128.398438 133.800781 128.230469 C 133.984375 128.0625 134.222656 127.929688 134.53125 127.816406 C 134.839844 127.707031 135.226562 127.65625 135.6875 127.65625 C 135.910156 127.65625 136.167969 127.667969 136.445312 127.691406 C 136.722656 127.71875 137.007812 127.761719 137.3125 127.824219 L 137.3125 128.714844 C 137 128.636719 136.695312 128.578125 136.414062 128.542969 C 136.132812 128.507812 135.886719 128.484375 135.675781 128.484375 C 135.425781 128.484375 135.214844 128.507812 135.042969 128.542969 C 134.871094 128.578125 134.734375 128.636719 134.625 128.699219 C 134.519531 128.769531 134.441406 128.847656 134.394531 128.933594 C 134.347656 129.023438 134.328125 129.121094 134.328125 129.226562 C 134.328125 129.332031 134.347656 129.425781 134.390625 129.507812 C 134.433594 129.59375 134.503906 129.675781 134.613281 129.753906 C 134.726562 129.832031 134.875 129.910156 135.074219 129.988281 C 135.273438 130.066406 135.53125 130.148438 135.84375 130.246094 C 136.1875 130.34375 136.476562 130.449219 136.710938 130.558594 C 136.945312 130.667969 137.132812 130.785156 137.28125 130.921875 C 137.425781 131.058594 137.53125 131.210938 137.59375 131.375 C 137.65625 131.542969 137.6875 131.734375 137.6875 131.949219 Z M 137.703125 131.980469 "/><path style=" stroke:none;fill-rule:nonzero;fill:#000000;fill-opacity:1;" d="M 141.933594 132.144531 C 142.039062 132.144531 142.136719 132.164062 142.226562 132.207031 C 142.316406 132.246094 142.398438 132.300781 142.464844 132.367188 C 142.535156 132.433594 142.585938 132.519531 142.628906 132.613281 C 142.671875 132.707031 142.691406 132.804688 142.691406 132.910156 C 142.691406 133.015625 142.671875 133.113281 142.628906 133.203125 C 142.585938 133.289062 142.535156 133.375 142.464844 133.441406 C 142.398438 133.511719 142.320312 133.5625 142.226562 133.605469 C 142.132812 133.644531 142.03125 133.667969 141.933594 133.667969 C 141.835938 133.667969 141.722656 133.644531 141.628906 133.605469 C 141.535156 133.5625 141.457031 133.511719 141.390625 133.441406 C 141.320312 133.375 141.265625 133.296875 141.226562 133.203125 C 141.191406 133.109375 141.164062 133.007812 141.164062 132.910156 C 141.164062 132.8125 141.1875 132.707031 141.226562 132.613281 C 141.269531 132.519531 141.320312 132.433594 141.390625 132.367188 C 141.457031 132.300781 141.542969 132.242188 141.628906 132.207031 C 141.71875 132.167969 141.824219 132.144531 141.933594 132.144531 Z M 142.539062 125.417969 L 142.382812 131.355469 L 141.496094 131.355469 L 141.320312 125.417969 Z M 142.539062 125.417969 "/><path style=" stroke:none;fill-rule:nonzero;fill:#f75b2b;fill-opacity:1;" d="M 166.746094 12.515625 C 166.746094 12.90625 166.671875 13.277344 166.523438 13.636719 C 166.375 13.992188 166.164062 14.308594 165.890625 14.582031 C 165.617188 14.855469 165.300781 15.066406 164.941406 15.214844 C 164.582031 15.363281 164.207031 15.4375 163.820312 15.4375 C 163.433594 15.4375 163.058594 15.363281 162.699219 15.214844 C 162.339844 15.066406 162.023438 14.855469 161.75 14.582031 C 161.476562 14.308594 161.265625 13.992188 161.117188 13.636719 C 160.96875 13.277344 160.894531 12.90625 160.894531 12.515625 C 160.894531 12.128906 160.96875 11.757812 161.117188 11.398438 C 161.265625 11.042969 161.476562 10.726562 161.75 10.453125 C 162.023438 10.175781 162.339844 9.964844 162.699219 9.816406 C 163.058594 9.671875 163.433594 9.597656 163.820312 9.597656 C 164.207031 9.597656 164.582031 9.671875 164.941406 9.816406 C 165.300781 9.964844 165.617188 10.175781 165.890625 10.453125 C 166.164062 10.726562 166.375 11.042969 166.523438 11.398438 C 166.671875 11.757812 166.746094 12.128906 166.746094 12.515625 Z M 166.746094 12.515625 "/><path style=" stroke:none;fill-rule:nonzero;fill:#000000;fill-opacity:1;" d="M 163.820312 15.964844 C 161.917969 15.964844 160.371094 14.421875 160.371094 12.523438 C 160.371094 10.625 161.917969 9.078125 163.820312 9.078125 C 165.722656 9.078125 167.269531 10.625 167.269531 12.523438 C 167.269531 14.421875 165.722656 15.964844 163.820312 15.964844 Z M 163.820312 10.117188 C 162.492188 10.117188 161.417969 11.191406 161.417969 12.515625 C 161.417969 13.84375 162.492188 14.917969 163.820312 14.917969 C 165.148438 14.917969 166.226562 13.84375 166.226562 12.515625 C 166.226562 11.191406 165.144531 10.117188 163.820312 10.117188 Z M 163.820312 10.117188 "/><path style=" stroke:none;fill-rule:nonzero;fill:#f75b2b;fill-opacity:1;" d="M 174.453125 12.515625 C 174.453125 12.90625 174.378906 13.277344 174.230469 13.636719 C 174.082031 13.992188 173.871094 14.308594 173.597656 14.582031 C 173.320312 14.855469 173.003906 15.066406 172.644531 15.214844 C 172.289062 15.363281 171.914062 15.4375 171.527344 15.4375 C 171.136719 15.4375 170.765625 15.363281 170.40625 15.214844 C 170.046875 15.066406 169.730469 14.855469 169.457031 14.582031 C 169.179688 14.308594 168.96875 13.992188 168.820312 13.636719 C 168.671875 13.277344 168.597656 12.90625 168.597656 12.515625 C 168.597656 12.128906 168.671875 11.757812 168.820312 11.398438 C 168.96875 11.042969 169.179688 10.726562 169.457031 10.453125 C 169.730469 10.175781 170.046875 9.964844 170.40625 9.816406 C 170.765625 9.671875 171.136719 9.597656 171.527344 9.597656 C 171.914062 9.597656 172.289062 9.671875 172.644531 9.816406 C 173.003906 9.964844 173.320312 10.175781 173.597656 10.453125 C 173.871094 10.726562 174.082031 11.042969 174.230469 11.398438 C 174.378906 11.757812 174.453125 12.128906 174.453125 12.515625 Z M 174.453125 12.515625 "/><path style=" stroke:none;fill-rule:nonzero;fill:#000000;fill-opacity:1;" d="M 171.527344 15.964844 C 169.625 15.964844 168.074219 14.421875 168.074219 12.523438 C 168.074219 10.625 169.625 9.078125 171.527344 9.078125 C 173.429688 9.078125 174.976562 10.625 174.976562 12.523438 C 174.976562 14.421875 173.429688 15.964844 171.527344 15.964844 Z M 171.527344 10.117188 C 170.199219 10.117188 169.121094 11.191406 169.121094 12.515625 C 169.121094 13.84375 170.199219 14.917969 171.527344 14.917969 C 172.855469 14.917969 173.929688 13.84375 173.929688 12.515625 C 173.929688 11.191406 172.855469 10.117188 171.527344 10.117188 Z M 171.527344 10.117188 "/><path style=" stroke:none;fill-rule:nonzero;fill:#f75b2b;fill-opacity:1;" d="M 182.160156 12.515625 C 182.160156 12.90625 182.085938 13.277344 181.9375 13.636719 C 181.785156 13.992188 181.574219 14.308594 181.300781 14.582031 C 181.027344 14.855469 180.710938 15.066406 180.351562 15.214844 C 179.992188 15.363281 179.621094 15.4375 179.230469 15.4375 C 178.84375 15.4375 178.46875 15.363281 178.109375 15.214844 C 177.753906 15.066406 177.4375 14.855469 177.160156 14.582031 C 176.886719 14.308594 176.675781 13.992188 176.527344 13.636719 C 176.378906 13.277344 176.304688 12.90625 176.304688 12.515625 C 176.304688 12.128906 176.378906 11.757812 176.527344 11.398438 C 176.675781 11.042969 176.886719 10.726562 177.160156 10.453125 C 177.4375 10.175781 177.753906 9.964844 178.109375 9.816406 C 178.46875 9.671875 178.84375 9.597656 179.230469 9.597656 C 179.621094 9.597656 179.992188 9.671875 180.351562 9.816406 C 180.710938 9.964844 181.027344 10.175781 181.300781 10.453125 C 181.574219 10.726562 181.785156 11.042969 181.9375 11.398438 C 182.085938 11.757812 182.160156 12.128906 182.160156 12.515625 Z M 182.160156 12.515625 "/><path style=" stroke:none;fill-rule:nonzero;fill:#000000;fill-opacity:1;" d="M 179.230469 15.964844 C 177.328125 15.964844 175.78125 14.421875 175.78125 12.523438 C 175.78125 10.625 177.328125 9.078125 179.230469 9.078125 C 181.132812 9.078125 182.679688 10.625 182.679688 12.523438 C 182.679688 14.421875 181.132812 15.964844 179.230469 15.964844 Z M 179.230469 10.117188 C 177.902344 10.117188 176.828125 11.191406 176.828125 12.515625 C 176.828125 13.84375 177.902344 14.917969 179.230469 14.917969 C 180.558594 14.917969 181.636719 13.84375 181.636719 12.515625 C 181.636719 11.191406 180.558594 10.117188 179.230469 10.117188 Z M 179.230469 10.117188 "/></g></svg>